M48
METRIC,0000.00
T01C0.486
T02C0.508
T03C0.6
T04C0.8
T05C0.9
T06C1.0
T07C1.1
%
T01
X+002780Y+000610
X+002910Y+000610
X+003040Y+000610
X+003170Y+000610
X+003300Y+000610
X+003660Y+000730
X+004030Y+002100
X+004280Y+002100
X+004600Y+002100
X+003170Y+002140
X+003040Y+002140
X+002910Y+002140
X+002780Y+002140
X+003190Y+003030
X+002200Y+003500
X+002130Y+004620
X+001980Y+004840
X+000410Y+000760
T02
X+000290Y+001328
X+000290Y+002053
T03
X+000300Y+002500
X+000300Y+002754
X+001616Y+003370
X+001870Y+003370
T04
X+000563Y+001447
X+000563Y+001932
T05
X+003600Y+004220
X+003600Y+003720
X+004010Y+003460
X+004010Y+003206
X+004043Y+002550
X+004297Y+002550
X+004551Y+002550
X+003789Y+002550
X+003535Y+002550
X+003281Y+002550
X+003027Y+002550
X+002773Y+002550
X+002519Y+002550
X+002265Y+002550
X+002011Y+002550
X+001757Y+002550
X+001503Y+002550
X+001249Y+002550
X+000900Y+002493
X+000900Y+002239
X+000900Y+001985
X+000900Y+001731
X+000900Y+001477
X+000900Y+001223
X+000900Y+000969
X+000900Y+000715
X+000900Y+000461
X+000900Y+000207
X+001249Y+000150
X+001503Y+000150
X+001757Y+000150
X+002011Y+000150
X+002265Y+000150
X+002519Y+000150
X+002773Y+000150
X+003027Y+000150
X+003281Y+000150
X+003535Y+000150
X+003789Y+000150
X+004043Y+000150
X+004297Y+000150
X+004551Y+000150
X+000660Y+003192
X+000660Y+004732
T06
X+002755Y+004140G85X+002605Y+004140
X+003120Y+004385G85X+003120Y+004535
X+002755Y+004780G85X+002605Y+004780
T07
X+004730Y+004810
X+004310Y+004780
X+004110Y+004280
X+004730Y+004310
X+004590Y+003710
X+004590Y+003210
X+000200Y+003600
X+000200Y+004100
T00
M30
